<svg xmlns="http://www.w3.org/2000/svg" width="161" height="11" viewBox="0 0 161 11" fill="none">
  <path d="M3.75602 8.14409C5.28002 8.14409 6.33602 6.96809 6.33602 5.09609C6.33602 3.21209 5.28002 2.06009 3.75602 2.06009C2.94002 2.06009 2.22002 2.48009 1.80002 3.06809V2.20409H0.900024V10.2081H1.80002V7.12409C2.26802 7.77209 2.96402 8.14409 3.75602 8.14409ZM3.52802 7.34009C2.82002 7.34009 2.11202 6.90809 1.80002 6.40409V3.78809C2.11202 3.28409 2.82002 2.86409 3.52802 2.86409C4.69202 2.86409 5.38802 3.81209 5.38802 5.09609C5.38802 6.38009 4.69202 7.34009 3.52802 7.34009Z" fill="#333333"/>
  <path d="M10.2992 8.14409C12.0632 8.14409 13.1672 6.77609 13.1672 5.09609C13.1672 3.41609 12.0632 2.06009 10.2992 2.06009C8.53521 2.06009 7.43121 3.41609 7.43121 5.09609C7.43121 6.77609 8.53521 8.14409 10.2992 8.14409ZM10.2992 7.34009C9.06321 7.34009 8.36721 6.28409 8.36721 5.09609C8.36721 3.92009 9.06321 2.86409 10.2992 2.86409C11.5352 2.86409 12.2192 3.92009 12.2192 5.09609C12.2192 6.28409 11.5352 7.34009 10.2992 7.34009Z" fill="#333333"/>
  <path d="M16.6864 8.14409C18.3544 8.14409 19.3384 7.42409 19.3384 6.45209C19.3384 5.49209 18.3304 5.08409 17.6584 5.03609C18.3424 4.95209 19.2184 4.48409 19.2184 3.62009C19.2184 2.63609 18.1144 2.06009 16.5544 2.07209C15.4984 2.07209 14.7184 2.44409 14.1784 2.99609L14.6464 3.54809C15.1384 3.04409 15.7744 2.80409 16.5904 2.80409C17.5504 2.80409 18.2824 3.17609 18.2824 3.72809C18.2824 4.38809 17.5264 4.70009 16.5664 4.70009H15.2704V5.43209H16.5664C17.5864 5.43209 18.3904 5.67209 18.3904 6.39209C18.3904 7.00409 17.7184 7.40009 16.6864 7.40009C15.8224 7.40009 15.0544 7.13609 14.5144 6.62009L14.0704 7.19609C14.6464 7.77209 15.5224 8.14409 16.6864 8.14409Z" fill="#333333"/>
  <path d="M23.6545 8.14409C25.1785 8.14409 26.2345 6.96809 26.2345 5.09609C26.2345 3.21209 25.1785 2.06009 23.6545 2.06009C22.8385 2.06009 22.1185 2.48009 21.6985 3.06809V2.20409H20.7985V10.2081H21.6985V7.12409C22.1665 7.77209 22.8625 8.14409 23.6545 8.14409ZM23.4265 7.34009C22.7185 7.34009 22.0105 6.90809 21.6985 6.40409V3.78809C22.0105 3.28409 22.7185 2.86409 23.4265 2.86409C24.5905 2.86409 25.2865 3.81209 25.2865 5.09609C25.2865 6.38009 24.5905 7.34009 23.4265 7.34009Z" fill="#333333"/>
  <path d="M30.1976 8.14409C31.9616 8.14409 33.0657 6.77609 33.0657 5.09609C33.0657 3.41609 31.9616 2.06009 30.1976 2.06009C28.4336 2.06009 27.3296 3.41609 27.3296 5.09609C27.3296 6.77609 28.4336 8.14409 30.1976 8.14409ZM30.1976 7.34009C28.9616 7.34009 28.2656 6.28409 28.2656 5.09609C28.2656 3.92009 28.9616 2.86409 30.1976 2.86409C31.4336 2.86409 32.1176 3.92009 32.1176 5.09609C32.1176 6.28409 31.4336 7.34009 30.1976 7.34009Z" fill="#333333"/>
  <path d="M37.0648 7.34009C35.8288 7.34009 35.1328 6.28409 35.1328 5.08409C35.1328 3.92009 35.8288 2.86409 37.0648 2.86409C38.3008 2.86409 38.9848 3.92009 38.9848 5.08409C38.9848 6.28409 38.3008 7.34009 37.0648 7.34009ZM37.0648 8.14409C38.8528 8.14409 39.9208 6.75209 39.9208 5.08409C39.9208 3.44009 38.8528 2.06009 37.2088 2.06009C36.1768 2.06009 35.4448 2.63609 35.0248 3.29609C35.2288 2.31209 35.7448 1.56809 37.4608 1.32809C38.4448 1.19609 39.7408 0.944094 39.7408 -0.00390625H38.8648C38.8648 0.236094 38.5048 0.392094 37.2328 0.584094C35.2168 0.848094 34.1968 2.01209 34.1968 4.83209C34.1968 6.75209 35.2888 8.14409 37.0648 8.14409Z" fill="#333333"/>
  <path d="M46.5586 8.00009L43.9786 4.83209L46.5466 2.20409H45.4066L42.3586 5.28809V2.20409H41.4586V8.00009H42.3586V6.34409L43.3186 5.39609L45.4066 8.00009H46.5586Z" fill="#333333"/>
  <path d="M52.1467 8.00009V4.01609C52.1467 2.61209 51.1267 2.06009 49.9027 2.06009C48.9547 2.06009 48.2107 2.37209 47.5867 3.02009L48.0067 3.64409C48.5227 3.09209 49.0867 2.84009 49.7827 2.84009C50.6227 2.84009 51.2467 3.28409 51.2467 4.06409V5.10809C50.7787 4.56809 50.1187 4.31609 49.3267 4.31609C48.3427 4.31609 47.2987 4.92809 47.2987 6.22409C47.2987 7.48409 48.3427 8.14409 49.3267 8.14409C50.1067 8.14409 50.7667 7.86809 51.2467 7.34009V8.00009H52.1467ZM49.6507 7.49609C48.8107 7.49609 48.2227 6.96809 48.2227 6.23609C48.2227 5.49209 48.8107 4.96409 49.6507 4.96409C50.2867 4.96409 50.8987 5.20409 51.2467 5.68409V6.77609C50.8987 7.25609 50.2867 7.49609 49.6507 7.49609Z" fill="#333333"/>
  <path d="M59.0006 8.00009V2.99609H60.6926V2.20409H56.4206V2.99609H58.1006V8.00009H59.0006Z" fill="#333333"/>
  <path d="M66.3967 8.00009V4.01609C66.3967 2.61209 65.3767 2.06009 64.1527 2.06009C63.2047 2.06009 62.4607 2.37209 61.8367 3.02009L62.2567 3.64409C62.7727 3.09209 63.3367 2.84009 64.0327 2.84009C64.8727 2.84009 65.4967 3.28409 65.4967 4.06409V5.10809C65.0287 4.56809 64.3687 4.31609 63.5767 4.31609C62.5927 4.31609 61.5487 4.92809 61.5487 6.22409C61.5487 7.48409 62.5927 8.14409 63.5767 8.14409C64.3567 8.14409 65.0167 7.86809 65.4967 7.34009V8.00009H66.3967ZM63.9007 7.49609C63.0607 7.49609 62.4727 6.96809 62.4727 6.23609C62.4727 5.49209 63.0607 4.96409 63.9007 4.96409C64.5367 4.96409 65.1487 5.20409 65.4967 5.68409V6.77609C65.1487 7.25609 64.5367 7.49609 63.9007 7.49609Z" fill="#333333"/>
  <path d="M76.1186 8.00009V2.20409H71.2946V8.00009H72.1946V2.99609H75.2186V8.00009H76.1186Z" fill="#333333"/>
  <path d="M78.3596 1.37609C78.6956 1.37609 78.9716 1.11209 78.9716 0.776094C78.9716 0.440094 78.6956 0.164094 78.3596 0.164094C78.0357 0.164094 77.7597 0.440094 77.7597 0.776094C77.7597 1.11209 78.0357 1.37609 78.3596 1.37609ZM78.8157 8.00009V2.20409H77.9156V8.00009H78.8157Z" fill="#333333"/>
  <path d="M79.927 9.47609H80.827V8.00009H85.207V9.47609H86.107V7.20809H85.435V2.20409H81.403L81.031 5.06009C80.803 6.77609 80.467 7.16009 79.927 7.25609V9.47609ZM82.195 2.99609H84.535V7.20809H81.091C81.511 6.87209 81.787 6.26009 81.931 5.16809L82.195 2.99609Z" fill="#333333"/>
  <path d="M89.2935 8.00009V2.99609H90.9855V2.20409H86.7135V2.99609H88.3935V8.00009H89.2935Z" fill="#333333"/>
  <path d="M95.0217 8.14409C96.5457 8.14409 97.6016 6.96809 97.6016 5.09609C97.6016 3.21209 96.5457 2.06009 95.0217 2.06009C94.2057 2.06009 93.4856 2.48009 93.0657 3.06809V2.20409H92.1656V10.2081H93.0657V7.12409C93.5337 7.77209 94.2297 8.14409 95.0217 8.14409ZM94.7936 7.34009C94.0856 7.34009 93.3776 6.90809 93.0657 6.40409V3.78809C93.3776 3.28409 94.0856 2.86409 94.7936 2.86409C95.9576 2.86409 96.6536 3.81209 96.6536 5.09609C96.6536 6.38009 95.9576 7.34009 94.7936 7.34009Z" fill="#333333"/>
  <path d="M99.8968 8.00009L102.957 3.48809V8.00009H103.857V2.20409H102.969L99.9328 6.63209V2.20409H99.0328V8.00009H99.8968Z" fill="#333333"/>
  <path d="M111.57 8.00009V2.20409H110.37L108.618 6.50009L106.842 2.20409H105.654V8.00009H106.554V3.45209L108.45 8.00009H108.786L110.67 3.45209V8.00009H111.57Z" fill="#333333"/>
  <path d="M118.465 8.00009L115.885 4.83209L118.453 2.20409H117.313L114.265 5.28809V2.20409H113.365V8.00009H114.265V6.34409L115.225 5.39609L117.313 8.00009H118.465Z" fill="#333333"/>
  <path d="M124.053 8.00009V4.01609C124.053 2.61209 123.033 2.06009 121.809 2.06009C120.861 2.06009 120.117 2.37209 119.493 3.02009L119.913 3.64409C120.429 3.09209 120.993 2.84009 121.689 2.84009C122.529 2.84009 123.153 3.28409 123.153 4.06409V5.10809C122.685 4.56809 122.025 4.31609 121.233 4.31609C120.249 4.31609 119.205 4.92809 119.205 6.22409C119.205 7.48409 120.249 8.14409 121.233 8.14409C122.013 8.14409 122.673 7.86809 123.153 7.34009V8.00009H124.053ZM121.557 7.49609C120.717 7.49609 120.129 6.96809 120.129 6.23609C120.129 5.49209 120.717 4.96409 121.557 4.96409C122.193 4.96409 122.805 5.20409 123.153 5.68409V6.77609C122.805 7.25609 122.193 7.49609 121.557 7.49609Z" fill="#333333"/>
  <path d="M131.507 8.14409C132.563 8.14409 133.187 7.71209 133.631 7.13609L133.031 6.58409C132.647 7.10009 132.155 7.34009 131.555 7.34009C130.319 7.34009 129.551 6.38009 129.551 5.09609C129.551 3.81209 130.319 2.86409 131.555 2.86409C132.155 2.86409 132.647 3.09209 133.031 3.62009L133.631 3.06809C133.187 2.49209 132.563 2.06009 131.507 2.06009C129.779 2.06009 128.615 3.38009 128.615 5.09609C128.615 6.82409 129.779 8.14409 131.507 8.14409Z" fill="#333333"/>
  <path d="M139.416 8.00009V4.01609C139.416 2.61209 138.396 2.06009 137.172 2.06009C136.224 2.06009 135.48 2.37209 134.856 3.02009L135.276 3.64409C135.792 3.09209 136.356 2.84009 137.052 2.84009C137.892 2.84009 138.516 3.28409 138.516 4.06409V5.10809C138.048 4.56809 137.388 4.31609 136.596 4.31609C135.612 4.31609 134.568 4.92809 134.568 6.22409C134.568 7.48409 135.612 8.14409 136.596 8.14409C137.376 8.14409 138.036 7.86809 138.516 7.34009V8.00009H139.416ZM136.92 7.49609C136.08 7.49609 135.492 6.96809 135.492 6.23609C135.492 5.49209 136.08 4.96409 136.92 4.96409C137.556 4.96409 138.168 5.20409 138.516 5.68409V6.77609C138.168 7.25609 137.556 7.49609 136.92 7.49609Z" fill="#333333"/>
  <path d="M142.084 8.00009L145.144 3.48809V8.00009H146.044V2.20409H145.156L142.12 6.63209V2.20409H141.22V8.00009H142.084ZM145.732 0.488094L145.288 0.104094C144.916 0.644094 144.328 0.968094 143.632 0.968094C142.924 0.968094 142.348 0.632094 141.964 0.104094L141.52 0.488094C142.012 1.13609 142.78 1.54409 143.632 1.54409C144.496 1.54409 145.252 1.13609 145.732 0.488094Z" fill="#333333"/>
  <path d="M149.797 8.00009V2.99609H151.489V2.20409H147.217V2.99609H148.897V8.00009H149.797Z" fill="#333333"/>
  <path d="M153.114 1.37609C153.45 1.37609 153.726 1.11209 153.726 0.776094C153.726 0.440094 153.45 0.164094 153.114 0.164094C152.79 0.164094 152.514 0.440094 152.514 0.776094C152.514 1.11209 152.79 1.37609 153.114 1.37609ZM153.57 8.00009V2.20409H152.67V8.00009H153.57Z" fill="#333333"/>
  <path d="M158.617 8.00009C159.685 8.00009 160.309 7.36409 160.309 6.42809C160.309 5.76809 159.841 5.15609 159.253 5.01209C159.745 4.85609 160.189 4.38809 160.189 3.69209C160.189 2.81609 159.577 2.20409 158.557 2.20409H155.365V8.00009H158.617ZM158.437 7.20809H156.265V5.42009H158.437C159.049 5.42009 159.373 5.85209 159.373 6.32009C159.373 6.87209 159.013 7.20809 158.437 7.20809ZM158.401 4.62809H156.265V2.99609H158.401C158.953 2.99609 159.265 3.32009 159.265 3.82409C159.265 4.28009 158.965 4.62809 158.401 4.62809Z" fill="#333333"/>
</svg>