<svg xmlns="http://www.w3.org/2000/svg" width="201" height="54" viewBox="0 0 201 54" fill="none">
  <path fill-rule="evenodd" clip-rule="evenodd" d="M0 44.6495H5.3741V4.86787H19.1033V0.447401H0V44.6495ZM28.0442 42.3252C28.8256 40.9922 29.5505 39.4731 29.9008 37.9478C30.3993 35.8282 30.4817 32.0268 30.6066 31.5378C30.6898 31.2119 30.7314 22.3219 30.7314 4.86787L41.2094 4.88755V44.8634H46.5124V0.447401H25.7479V31.5378C25.7085 33.2167 25.2892 35.3668 24.9174 36.9992C24.6584 38.1418 24.6668 38.5482 24.0868 39.5493C23.66 40.2925 22.3817 41.1033 21.6525 41.5013C20.9525 41.849 20.1875 42.024 19.4148 42.013V44.8634C19.7373 45.0055 20.0728 45.1118 20.4159 45.1807C21.2427 45.4077 22.0947 45.5144 22.9485 45.4979C23.9074 45.4937 24.8497 45.232 25.6876 44.7372C26.6492 44.1514 27.4586 43.3231 28.0442 42.3252ZM60.7942 20.3673C59.5361 18.976 58.9066 16.6146 58.9055 13.283C58.9055 9.95313 59.5348 7.59228 60.7934 6.20048C62.052 4.80868 64.0614 4.11306 66.8217 4.11363L71.0834 4.11363V22.455H66.8217C64.0617 22.4541 62.0522 21.7585 60.7942 20.3673ZM58.9055 27.7626C58.0044 29.2318 57.3843 30.8627 57.0782 32.5688L55.8606 37.9444C55.6115 39.0622 55.0874 40.0962 54.3381 40.9485C53.4165 41.7701 52.2062 42.1694 50.9892 42.0535V44.9046C51.3681 45.0345 51.7545 45.1401 52.1462 45.2208C52.9604 45.4423 53.8005 45.5487 54.6429 45.537C58.0926 45.537 60.4265 43.0073 61.6447 37.9478L62.8632 32.5722C63.3898 30.3802 64.1813 28.8836 65.2378 28.0822C66.2144 27.3092 67.4127 26.8871 68.6473 26.8811H71.0826V44.9046H76.5644V1.26939C75.0413 0.810027 73.4832 0.482179 71.9065 0.289293C70.2188 0.0923822 68.5212 -0.00270328 66.8225 0.00452914C64.7298 -0.037038 62.6409 0.207671 60.6115 0.732164C59.0563 1.13137 57.6294 1.93785 56.471 3.07233C55.368 4.22937 54.5705 5.6545 54.1537 7.21373C53.6304 9.19175 53.3846 11.2359 53.4236 13.2847C53.3932 14.98 53.64 16.6685 54.1537 18.2804C54.5775 19.5932 55.2158 20.8228 56.0416 21.9169C56.7611 22.8634 57.6625 23.6489 58.6903 24.2248C59.6103 24.7466 60.6078 25.1098 61.643 25.3001V25.5551C60.5141 25.9494 59.5475 26.7289 58.9055 27.7626ZM103.247 0.447401V20.0229H90.2775V0.447401H84.719V44.6495H90.2775V24.4434H103.247V44.6495H108.806V0.447401H103.247ZM122.609 23.8119H136.043V19.3914H122.609V4.86787H137.876V0.447401H117.112V44.6495H137.874V40.2299H122.609V23.8119ZM168.542 54H171.93V40.1395H167.927V0.447401H162.382V40.1395H150.065V0.447401H144.521V44.5491H166.692C166.869 47.771 167.491 50.9523 168.542 54ZM187.378 22.455C190.139 22.455 192.148 23.1611 193.406 24.5733C194.664 25.9855 195.293 28.4412 195.294 31.9406C195.294 35.4405 194.665 37.8963 193.406 39.3079C192.147 40.7195 190.138 41.4259 187.378 41.427H183.118V22.455H187.378ZM183.253 18.5296V0.447401H177.744V44.2258C179.274 44.6874 180.84 45.0163 182.425 45.2091C184.121 45.4067 185.827 45.5021 187.534 45.4948C189.639 45.5385 191.739 45.2822 193.775 44.7333C195.337 44.3133 196.768 43.4945 197.936 42.3539C199.053 41.1753 199.854 39.7222 200.261 38.135C200.789 36.0862 201.037 33.9724 200.996 31.854C200.996 26.7781 200.047 23.1826 198.15 21.0676C196.253 18.9526 193.326 17.8952 189.369 17.8952C188.308 17.9028 187.247 17.9665 186.192 18.0862C185.204 18.1822 184.224 18.3305 183.253 18.5296Z" fill="#333333"/>
</svg>